<?xml version="1.0" encoding="UTF-8" standalone="no"?>
<!DOCTYPE svg PUBLIC "-//W3C//DTD SVG 1.1//EN"
 "http://www.w3.org/Graphics/SVG/1.1/DTD/svg11.dtd">
<!-- Generated by graphviz version 2.43.0 (0)
 -->
<!-- Title: binarytree.h Pages: 1 -->
<svg width="186pt" height="82pt"
 viewBox="0.00 0.00 186.00 82.00" xmlns="http://www.w3.org/2000/svg" xmlns:xlink="http://www.w3.org/1999/xlink">
<g id="graph0" class="graph" transform="scale(1 1) rotate(0) translate(4 78)">
<title>binarytree.h</title>
<!-- Node1 -->
<g id="node1" class="node">
<title>Node1</title>
<g id="a_node1"><a xlink:title=" ">
<polygon fill="#999999" stroke="#666666" points="146.5,-74 70.5,-74 70.5,-55 146.5,-55 146.5,-74"/>
<text text-anchor="middle" x="108.5" y="-62" font-family="Helvetica,sans-Serif" font-size="10.00">binarytree.h</text>
</a>
</g>
</g>
<!-- Node2 -->
<g id="node2" class="node">
<title>Node2</title>
<g id="a_node2"><a xlink:href="ContainersDemo_8cpp.html" target="_top" xlink:title=" ">
<polygon fill="white" stroke="#666666" points="119,-19 0,-19 0,0 119,0 119,-19"/>
<text text-anchor="middle" x="59.5" y="-7" font-family="Helvetica,sans-Serif" font-size="10.00">ContainersDemo.cpp</text>
</a>
</g>
</g>
<!-- Node1&#45;&gt;Node2 -->
<g id="edge1" class="edge">
<title>Node1&#45;&gt;Node2</title>
<path fill="none" stroke="#63b8ff" d="M93.47,-47.24C84.88,-37.95 74.46,-26.68 67.44,-19.09"/>
<polygon fill="#63b8ff" stroke="#63b8ff" points="91.05,-49.78 100.41,-54.75 96.19,-45.03 91.05,-49.78"/>
</g>
<!-- Node3 -->
<g id="node3" class="node">
<title>Node3</title>
<g id="a_node3"><a xlink:href="avl_8h.html" target="_top" xlink:title=" ">
<polygon fill="white" stroke="#666666" points="178,-19 137,-19 137,0 178,0 178,-19"/>
<text text-anchor="middle" x="157.5" y="-7" font-family="Helvetica,sans-Serif" font-size="10.00">avl.h</text>
</a>
</g>
</g>
<!-- Node1&#45;&gt;Node3 -->
<g id="edge2" class="edge">
<title>Node1&#45;&gt;Node3</title>
<path fill="none" stroke="#63b8ff" d="M123.53,-47.24C132.12,-37.95 142.54,-26.68 149.56,-19.09"/>
<polygon fill="#63b8ff" stroke="#63b8ff" points="120.81,-45.03 116.59,-54.75 125.95,-49.78 120.81,-45.03"/>
</g>
</g>
</svg>
