<?xml version="1.0" encoding="UTF-8" standalone="no"?>
<!DOCTYPE svg PUBLIC "-//W3C//DTD SVG 1.1//EN"
 "http://www.w3.org/Graphics/SVG/1.1/DTD/svg11.dtd">
<!-- Generated by graphviz version 2.43.0 (0)
 -->
<!-- Title: CBTreePage&lt; Trait &gt; Pages: 1 -->
<svg width="449pt" height="126pt"
 viewBox="0.00 0.00 448.50 126.00" xmlns="http://www.w3.org/2000/svg" xmlns:xlink="http://www.w3.org/1999/xlink">
<g id="graph0" class="graph" transform="scale(1 1) rotate(0) translate(4 122)">
<title>CBTreePage&lt; Trait &gt;</title>
<!-- Node1 -->
<g id="node1" class="node">
<title>Node1</title>
<g id="a_node1"><a xlink:title=" ">
<polygon fill="#999999" stroke="#666666" points="254,-19 137,-19 137,0 254,0 254,-19"/>
<text text-anchor="middle" x="195.5" y="-7" font-family="Helvetica,sans-Serif" font-size="10.00">CBTreePage&lt; Trait &gt;</text>
</a>
</g>
</g>
<!-- Node2 -->
<g id="node2" class="node">
<title>Node2</title>
<g id="a_node2"><a xlink:title=" ">
<polygon fill="white" stroke="#666666" points="45,-118 0,-118 0,-99 45,-99 45,-118"/>
<text text-anchor="middle" x="22.5" y="-106" font-family="Helvetica,sans-Serif" font-size="10.00">size_t</text>
</a>
</g>
</g>
<!-- Node2&#45;&gt;Node1 -->
<g id="edge1" class="edge">
<title>Node2&#45;&gt;Node1</title>
<path fill="none" stroke="#9a32cd" stroke-dasharray="5,2" d="M18.02,-88.63C15.49,-72.81 14.95,-50.68 27.5,-37 42.03,-21.17 94.31,-14.78 136.74,-12.2"/>
<polygon fill="#9a32cd" stroke="#9a32cd" points="14.67,-89.7 20.07,-98.82 21.53,-88.32 14.67,-89.7"/>
<text text-anchor="middle" x="80" y="-73" font-family="Helvetica,sans-Serif" font-size="10.00"> m_KeyCount</text>
<text text-anchor="middle" x="80" y="-62" font-family="Helvetica,sans-Serif" font-size="10.00">m_MaxKeys</text>
<text text-anchor="middle" x="80" y="-51" font-family="Helvetica,sans-Serif" font-size="10.00">m_MaxKeysForChilds</text>
<text text-anchor="middle" x="80" y="-40" font-family="Helvetica,sans-Serif" font-size="10.00">m_MinKeys</text>
</g>
<!-- Node3 -->
<g id="node3" class="node">
<title>Node3</title>
<g id="a_node3"><a xlink:title=" ">
<polygon fill="white" stroke="#666666" points="154.5,-118 116.5,-118 116.5,-99 154.5,-99 154.5,-118"/>
<text text-anchor="middle" x="135.5" y="-106" font-family="Helvetica,sans-Serif" font-size="10.00">bool</text>
</a>
</g>
</g>
<!-- Node3&#45;&gt;Node1 -->
<g id="edge2" class="edge">
<title>Node3&#45;&gt;Node1</title>
<path fill="none" stroke="#9a32cd" stroke-dasharray="5,2" d="M135.82,-88.55C136.96,-73.33 140.6,-52.08 151.5,-37 157.14,-29.2 165.85,-23.26 174.04,-19"/>
<polygon fill="#9a32cd" stroke="#9a32cd" points="132.32,-88.67 135.37,-98.81 139.31,-88.98 132.32,-88.67"/>
<text text-anchor="middle" x="178" y="-62" font-family="Helvetica,sans-Serif" font-size="10.00"> m_Unique</text>
<text text-anchor="middle" x="178" y="-51" font-family="Helvetica,sans-Serif" font-size="10.00">m_isRoot</text>
</g>
<!-- Node4 -->
<g id="node4" class="node">
<title>Node4</title>
<g id="a_node4"><a xlink:title=" ">
<polygon fill="white" stroke="#666666" points="308.5,-118 172.5,-118 172.5,-99 308.5,-99 308.5,-118"/>
<text text-anchor="middle" x="240.5" y="-106" font-family="Helvetica,sans-Serif" font-size="10.00">vector&lt; tagObjectInfo &gt;</text>
</a>
</g>
</g>
<!-- Node4&#45;&gt;Node1 -->
<g id="edge3" class="edge">
<title>Node4&#45;&gt;Node1</title>
<path fill="none" stroke="#9a32cd" stroke-dasharray="5,2" d="M232.17,-89.54C222.48,-68.66 206.88,-35.03 199.55,-19.23"/>
<polygon fill="#9a32cd" stroke="#9a32cd" points="229.12,-91.29 236.51,-98.89 235.47,-88.35 229.12,-91.29"/>
<text text-anchor="middle" x="247.5" y="-56.5" font-family="Helvetica,sans-Serif" font-size="10.00"> m_Keys</text>
</g>
<!-- Node5 -->
<g id="node5" class="node">
<title>Node5</title>
<g id="a_node5"><a xlink:title=" ">
<polygon fill="white" stroke="#666666" points="440.5,-118 326.5,-118 326.5,-99 440.5,-99 440.5,-118"/>
<text text-anchor="middle" x="383.5" y="-106" font-family="Helvetica,sans-Serif" font-size="10.00">vector&lt; BTPage * &gt;</text>
</a>
</g>
</g>
<!-- Node5&#45;&gt;Node1 -->
<g id="edge4" class="edge">
<title>Node5&#45;&gt;Node1</title>
<path fill="none" stroke="#9a32cd" stroke-dasharray="5,2" d="M363.72,-92.92C342.14,-77.49 306.16,-53.2 272.5,-37 257.6,-29.83 240.23,-23.67 225.77,-19.11"/>
<polygon fill="#9a32cd" stroke="#9a32cd" points="361.88,-95.91 372.04,-98.93 365.99,-90.24 361.88,-95.91"/>
<text text-anchor="middle" x="377" y="-56.5" font-family="Helvetica,sans-Serif" font-size="10.00"> m_SubPages</text>
</g>
</g>
</svg>
