<?xml version="1.0" encoding="UTF-8" standalone="no"?>
<!DOCTYPE svg PUBLIC "-//W3C//DTD SVG 1.1//EN"
 "http://www.w3.org/Graphics/SVG/1.1/DTD/svg11.dtd">
<!-- Generated by graphviz version 2.43.0 (0)
 -->
<!-- Title: CDoubleLinkedList&lt; Traits &gt; Pages: 1 -->
<svg width="370pt" height="184pt"
 viewBox="0.00 0.00 369.50 184.00" xmlns="http://www.w3.org/2000/svg" xmlns:xlink="http://www.w3.org/1999/xlink">
<g id="graph0" class="graph" transform="scale(1 1) rotate(0) translate(4 180)">
<title>CDoubleLinkedList&lt; Traits &gt;</title>
<!-- Node1 -->
<g id="node1" class="node">
<title>Node1</title>
<g id="a_node1"><a xlink:title=" ">
<polygon fill="#999999" stroke="#666666" points="290,-30 175,-30 175,0 290,0 290,-30"/>
<text text-anchor="start" x="183" y="-18" font-family="Helvetica,sans-Serif" font-size="10.00">CDoubleLinkedList&lt;</text>
<text text-anchor="middle" x="232.5" y="-7" font-family="Helvetica,sans-Serif" font-size="10.00"> Traits &gt;</text>
</a>
</g>
</g>
<!-- Node2 -->
<g id="node2" class="node">
<title>Node2</title>
<g id="a_node2"><a xlink:href="classDLLNode.html" target="_top" xlink:title=" ">
<polygon fill="white" stroke="#666666" points="126,-108.5 17,-108.5 17,-89.5 126,-89.5 126,-108.5"/>
<text text-anchor="middle" x="71.5" y="-96.5" font-family="Helvetica,sans-Serif" font-size="10.00">DLLNode&lt; Traits &gt;</text>
</a>
</g>
</g>
<!-- Node2&#45;&gt;Node1 -->
<g id="edge1" class="edge">
<title>Node2&#45;&gt;Node1</title>
<path fill="none" stroke="#9a32cd" stroke-dasharray="5,2" d="M97.66,-84.67C127.12,-69.67 174.76,-45.41 204.82,-30.1"/>
<polygon fill="#9a32cd" stroke="#9a32cd" points="95.75,-81.72 88.43,-89.38 98.92,-87.96 95.75,-81.72"/>
<text text-anchor="middle" x="189" y="-62" font-family="Helvetica,sans-Serif" font-size="10.00"> m_pRoot</text>
<text text-anchor="middle" x="189" y="-51" font-family="Helvetica,sans-Serif" font-size="10.00">m_pTail</text>
</g>
<!-- Node2&#45;&gt;Node2 -->
<g id="edge4" class="edge">
<title>Node2&#45;&gt;Node2</title>
<path fill="none" stroke="#9a32cd" stroke-dasharray="5,2" d="M136.41,-103.71C141.12,-102.64 144,-101.08 144,-99 144,-95.68 136.62,-93.66 126.2,-92.93"/>
<polygon fill="#9a32cd" stroke="#9a32cd" points="135.64,-100.28 126.2,-105.07 136.57,-107.22 135.64,-100.28"/>
<text text-anchor="middle" x="168" y="-102" font-family="Helvetica,sans-Serif" font-size="10.00"> m_pNext</text>
<text text-anchor="middle" x="168" y="-91" font-family="Helvetica,sans-Serif" font-size="10.00">m_pPrev</text>
</g>
<!-- Node3 -->
<g id="node3" class="node">
<title>Node3</title>
<g id="a_node3"><a xlink:title=" ">
<polygon fill="white" stroke="#666666" points="71,-176 0,-176 0,-157 71,-157 71,-176"/>
<text text-anchor="middle" x="35.5" y="-164" font-family="Helvetica,sans-Serif" font-size="10.00">value_type</text>
</a>
</g>
</g>
<!-- Node3&#45;&gt;Node2 -->
<g id="edge2" class="edge">
<title>Node3&#45;&gt;Node2</title>
<path fill="none" stroke="#9a32cd" stroke-dasharray="5,2" d="M39.3,-146.59C40.99,-140.43 43.33,-133.71 46.5,-128 50.55,-120.71 56.8,-113.71 62.04,-108.53"/>
<polygon fill="#9a32cd" stroke="#9a32cd" points="35.8,-146.2 36.93,-156.73 42.61,-147.79 35.8,-146.2"/>
<text text-anchor="middle" x="66.5" y="-131" font-family="Helvetica,sans-Serif" font-size="10.00"> m_data</text>
</g>
<!-- Node4 -->
<g id="node4" class="node">
<title>Node4</title>
<g id="a_node4"><a xlink:href="classlong.html" target="_top" xlink:title=" ">
<polygon fill="white" stroke="#666666" points="127.5,-176 89.5,-176 89.5,-157 127.5,-157 127.5,-176"/>
<text text-anchor="middle" x="108.5" y="-164" font-family="Helvetica,sans-Serif" font-size="10.00">long</text>
</a>
</g>
</g>
<!-- Node4&#45;&gt;Node2 -->
<g id="edge3" class="edge">
<title>Node4&#45;&gt;Node2</title>
<path fill="none" stroke="#9a32cd" stroke-dasharray="5,2" d="M98.72,-148.2C91.56,-135.51 82.13,-118.82 76.46,-108.77"/>
<polygon fill="#9a32cd" stroke="#9a32cd" points="95.7,-149.95 103.66,-156.94 101.79,-146.51 95.7,-149.95"/>
<text text-anchor="middle" x="109.5" y="-131" font-family="Helvetica,sans-Serif" font-size="10.00"> m_ref</text>
</g>
<!-- Node5 -->
<g id="node5" class="node">
<title>Node5</title>
<g id="a_node5"><a xlink:title=" ">
<polygon fill="white" stroke="#666666" points="255,-108.5 210,-108.5 210,-89.5 255,-89.5 255,-108.5"/>
<text text-anchor="middle" x="232.5" y="-96.5" font-family="Helvetica,sans-Serif" font-size="10.00">size_t</text>
</a>
</g>
</g>
<!-- Node5&#45;&gt;Node1 -->
<g id="edge5" class="edge">
<title>Node5&#45;&gt;Node1</title>
<path fill="none" stroke="#9a32cd" stroke-dasharray="5,2" d="M232.5,-79.11C232.5,-64.2 232.5,-43.72 232.5,-30.18"/>
<polygon fill="#9a32cd" stroke="#9a32cd" points="229,-79.22 232.5,-89.22 236,-79.22 229,-79.22"/>
<text text-anchor="middle" x="257" y="-56.5" font-family="Helvetica,sans-Serif" font-size="10.00"> m_nElem</text>
</g>
<!-- Node6 -->
<g id="node6" class="node">
<title>Node6</title>
<g id="a_node6"><a xlink:title=" ">
<polygon fill="white" stroke="#666666" points="324,-108.5 285,-108.5 285,-89.5 324,-89.5 324,-108.5"/>
<text text-anchor="middle" x="304.5" y="-96.5" font-family="Helvetica,sans-Serif" font-size="10.00">Func</text>
</a>
</g>
</g>
<!-- Node6&#45;&gt;Node1 -->
<g id="edge6" class="edge">
<title>Node6&#45;&gt;Node1</title>
<path fill="none" stroke="#9a32cd" stroke-dasharray="5,2" d="M299.39,-79.83C295.86,-69.65 290.37,-57.2 282.5,-48 276.47,-40.95 268.5,-34.91 260.7,-30.03"/>
<polygon fill="#9a32cd" stroke="#9a32cd" points="296.05,-80.88 302.37,-89.39 302.73,-78.8 296.05,-80.88"/>
<text text-anchor="middle" x="328" y="-56.5" font-family="Helvetica,sans-Serif" font-size="10.00"> m_fCompare</text>
</g>
</g>
</svg>
