<?xml version="1.0" encoding="UTF-8" standalone="no"?>
<!DOCTYPE svg PUBLIC "-//W3C//DTD SVG 1.1//EN"
 "http://www.w3.org/Graphics/SVG/1.1/DTD/svg11.dtd">
<!-- Generated by graphviz version 2.43.0 (0)
 -->
<!-- Title: ContainersDemo.cpp Pages: 1 -->
<svg width="654pt" height="137pt"
 viewBox="0.00 0.00 653.84 137.00" xmlns="http://www.w3.org/2000/svg" xmlns:xlink="http://www.w3.org/1999/xlink">
<g id="graph0" class="graph" transform="scale(1 1) rotate(0) translate(4 133)">
<title>ContainersDemo.cpp</title>
<!-- Node1 -->
<g id="node1" class="node">
<title>Node1</title>
<g id="a_node1"><a xlink:title=" ">
<polygon fill="#999999" stroke="#666666" points="394.84,-129 275.84,-129 275.84,-110 394.84,-110 394.84,-129"/>
<text text-anchor="middle" x="335.34" y="-117" font-family="Helvetica,sans-Serif" font-size="10.00">ContainersDemo.cpp</text>
</a>
</g>
</g>
<!-- Node2 -->
<g id="node2" class="node">
<title>Node2</title>
<g id="a_node2"><a xlink:title=" ">
<polygon fill="#e0e0e0" stroke="#999999" points="146.34,-19 86.34,-19 86.34,0 146.34,0 146.34,-19"/>
<text text-anchor="middle" x="116.34" y="-7" font-family="Helvetica,sans-Serif" font-size="10.00">iostream</text>
</a>
</g>
</g>
<!-- Node1&#45;&gt;Node2 -->
<g id="edge1" class="edge">
<title>Node1&#45;&gt;Node2</title>
<path fill="none" stroke="#63b8ff" d="M275.66,-119.39C190.5,-119.24 40.62,-113.22 6.34,-74 -17.74,-46.45 35.62,-27.93 76.14,-18.32"/>
<polygon fill="#63b8ff" stroke="#63b8ff" points="77.13,-21.68 86.11,-16.06 75.58,-14.85 77.13,-21.68"/>
</g>
<!-- Node3 -->
<g id="node3" class="node">
<title>Node3</title>
<g id="a_node3"><a xlink:title=" ">
<polygon fill="#e0e0e0" stroke="#999999" points="534.84,-19 479.84,-19 479.84,0 534.84,0 534.84,-19"/>
<text text-anchor="middle" x="507.34" y="-7" font-family="Helvetica,sans-Serif" font-size="10.00">fstream</text>
</a>
</g>
</g>
<!-- Node1&#45;&gt;Node3 -->
<g id="edge2" class="edge">
<title>Node1&#45;&gt;Node3</title>
<path fill="none" stroke="#63b8ff" d="M394.87,-114.66C426.45,-109.63 463.7,-98.45 488.34,-74 500.2,-62.23 504.72,-43.39 506.41,-29.28"/>
<polygon fill="#63b8ff" stroke="#63b8ff" points="509.91,-29.46 507.25,-19.2 502.93,-28.88 509.91,-29.46"/>
</g>
<!-- Node4 -->
<g id="node4" class="node">
<title>Node4</title>
<g id="a_node4"><a xlink:title=" ">
<polygon fill="#e0e0e0" stroke="#999999" points="582.84,-74 535.84,-74 535.84,-55 582.84,-55 582.84,-74"/>
<text text-anchor="middle" x="559.34" y="-62" font-family="Helvetica,sans-Serif" font-size="10.00">vector</text>
</a>
</g>
</g>
<!-- Node1&#45;&gt;Node4 -->
<g id="edge3" class="edge">
<title>Node1&#45;&gt;Node4</title>
<path fill="none" stroke="#63b8ff" d="M371.33,-109.98C413.97,-99.9 484.44,-83.22 525.92,-73.41"/>
<polygon fill="#63b8ff" stroke="#63b8ff" points="526.88,-76.78 535.81,-71.07 525.27,-69.96 526.88,-76.78"/>
</g>
<!-- Node5 -->
<g id="node5" class="node">
<title>Node5</title>
<g id="a_node5"><a xlink:title=" ">
<polygon fill="#e0e0e0" stroke="#999999" points="645.84,-74 600.84,-74 600.84,-55 645.84,-55 645.84,-74"/>
<text text-anchor="middle" x="623.34" y="-62" font-family="Helvetica,sans-Serif" font-size="10.00">utility</text>
</a>
</g>
</g>
<!-- Node1&#45;&gt;Node5 -->
<g id="edge4" class="edge">
<title>Node1&#45;&gt;Node5</title>
<path fill="none" stroke="#63b8ff" d="M394.09,-109.97C444.14,-102.34 518.14,-90.17 590.92,-74.15"/>
<polygon fill="#63b8ff" stroke="#63b8ff" points="591.72,-77.56 600.72,-71.97 590.2,-70.73 591.72,-77.56"/>
</g>
<!-- Node6 -->
<g id="node6" class="node">
<title>Node6</title>
<g id="a_node6"><a xlink:href="linkedlist_8h.html" target="_top" xlink:title=" ">
<polygon fill="white" stroke="#666666" points="225.34,-74 155.34,-74 155.34,-55 225.34,-55 225.34,-74"/>
<text text-anchor="middle" x="190.34" y="-62" font-family="Helvetica,sans-Serif" font-size="10.00">linkedlist.h</text>
</a>
</g>
</g>
<!-- Node1&#45;&gt;Node6 -->
<g id="edge5" class="edge">
<title>Node1&#45;&gt;Node6</title>
<path fill="none" stroke="#63b8ff" d="M312.05,-109.98C288.09,-101.23 250.56,-87.51 223.51,-77.62"/>
<polygon fill="#63b8ff" stroke="#63b8ff" points="224.66,-74.32 214.06,-74.17 222.25,-80.89 224.66,-74.32"/>
</g>
<!-- Node7 -->
<g id="node7" class="node">
<title>Node7</title>
<g id="a_node7"><a xlink:href="types_8h.html" target="_top" xlink:title=" ">
<polygon fill="white" stroke="#666666" points="355.84,-19 302.84,-19 302.84,0 355.84,0 355.84,-19"/>
<text text-anchor="middle" x="329.34" y="-7" font-family="Helvetica,sans-Serif" font-size="10.00">types.h</text>
</a>
</g>
</g>
<!-- Node1&#45;&gt;Node7 -->
<g id="edge19" class="edge">
<title>Node1&#45;&gt;Node7</title>
<path fill="none" stroke="#63b8ff" d="M341.28,-109.94C348.95,-97.8 360.72,-74.86 355.34,-55 352.69,-45.19 347.27,-35.33 342.07,-27.39"/>
<polygon fill="#63b8ff" stroke="#63b8ff" points="344.84,-25.25 336.23,-19.07 339.11,-29.27 344.84,-25.25"/>
</g>
<!-- Node9 -->
<g id="node9" class="node">
<title>Node9</title>
<g id="a_node9"><a xlink:href="doublelinkedlist_8h.html" target="_top" xlink:title=" ">
<polygon fill="white" stroke="#666666" points="346.84,-74 243.84,-74 243.84,-55 346.84,-55 346.84,-74"/>
<text text-anchor="middle" x="295.34" y="-62" font-family="Helvetica,sans-Serif" font-size="10.00">doublelinkedlist.h</text>
</a>
</g>
</g>
<!-- Node1&#45;&gt;Node9 -->
<g id="edge9" class="edge">
<title>Node1&#45;&gt;Node9</title>
<path fill="none" stroke="#63b8ff" d="M328.74,-109.75C323.09,-102.26 314.8,-91.28 307.89,-82.13"/>
<polygon fill="#63b8ff" stroke="#63b8ff" points="310.64,-79.96 301.82,-74.09 305.05,-84.18 310.64,-79.96"/>
</g>
<!-- Node10 -->
<g id="node10" class="node">
<title>Node10</title>
<g id="a_node10"><a xlink:href="binarytree_8h.html" target="_top" xlink:title=" ">
<polygon fill="white" stroke="#666666" points="479.34,-74 403.34,-74 403.34,-55 479.34,-55 479.34,-74"/>
<text text-anchor="middle" x="441.34" y="-62" font-family="Helvetica,sans-Serif" font-size="10.00">binarytree.h</text>
</a>
</g>
</g>
<!-- Node1&#45;&gt;Node10 -->
<g id="edge13" class="edge">
<title>Node1&#45;&gt;Node10</title>
<path fill="none" stroke="#63b8ff" d="M352.37,-109.98C369.27,-101.54 395.41,-88.47 414.99,-78.68"/>
<polygon fill="#63b8ff" stroke="#63b8ff" points="416.62,-81.77 424,-74.17 413.49,-75.51 416.62,-81.77"/>
</g>
<!-- Node12 -->
<g id="node12" class="node">
<title>Node12</title>
<g id="a_node12"><a xlink:href="foreach_8h.html" target="_top" xlink:title=" ">
<polygon fill="white" stroke="#666666" points="77.34,-74 15.34,-74 15.34,-55 77.34,-55 77.34,-74"/>
<text text-anchor="middle" x="46.34" y="-62" font-family="Helvetica,sans-Serif" font-size="10.00">foreach.h</text>
</a>
</g>
</g>
<!-- Node1&#45;&gt;Node12 -->
<g id="edge17" class="edge">
<title>Node1&#45;&gt;Node12</title>
<path fill="none" stroke="#63b8ff" d="M284.7,-109.95C236.49,-101.69 161.64,-88.59 87.71,-74.22"/>
<polygon fill="#63b8ff" stroke="#63b8ff" points="88.25,-70.76 77.77,-72.28 86.91,-77.63 88.25,-70.76"/>
</g>
<!-- Node13 -->
<g id="node13" class="node">
<title>Node13</title>
<g id="a_node13"><a xlink:href="util_8h.html" target="_top" xlink:title=" ">
<polygon fill="white" stroke="#666666" points="136.84,-74 95.84,-74 95.84,-55 136.84,-55 136.84,-74"/>
<text text-anchor="middle" x="116.34" y="-62" font-family="Helvetica,sans-Serif" font-size="10.00">util.h</text>
</a>
</g>
</g>
<!-- Node1&#45;&gt;Node13 -->
<g id="edge20" class="edge">
<title>Node1&#45;&gt;Node13</title>
<path fill="none" stroke="#63b8ff" d="M296.85,-109.97C260.59,-101.81 204.53,-88.9 146.65,-73.98"/>
<polygon fill="#63b8ff" stroke="#63b8ff" points="147.52,-70.6 136.97,-71.47 145.77,-77.37 147.52,-70.6"/>
</g>
<!-- Node6&#45;&gt;Node2 -->
<g id="edge6" class="edge">
<title>Node6&#45;&gt;Node2</title>
<path fill="none" stroke="#63b8ff" d="M178.45,-54.98C167.19,-46.92 150.06,-34.65 136.63,-25.03"/>
<polygon fill="#63b8ff" stroke="#63b8ff" points="138.62,-22.15 128.45,-19.17 134.54,-27.84 138.62,-22.15"/>
</g>
<!-- Node6&#45;&gt;Node7 -->
<g id="edge7" class="edge">
<title>Node6&#45;&gt;Node7</title>
<path fill="none" stroke="#63b8ff" d="M212.67,-54.98C235.54,-46.27 271.3,-32.63 297.2,-22.75"/>
<polygon fill="#63b8ff" stroke="#63b8ff" points="298.51,-26 306.6,-19.17 296.01,-19.46 298.51,-26"/>
</g>
<!-- Node8 -->
<g id="node8" class="node">
<title>Node8</title>
<g id="a_node8"><a xlink:href="traits_8h.html" target="_top" xlink:title=" ">
<polygon fill="white" stroke="#666666" points="232.84,-19 181.84,-19 181.84,0 232.84,0 232.84,-19"/>
<text text-anchor="middle" x="207.34" y="-7" font-family="Helvetica,sans-Serif" font-size="10.00">traits.h</text>
</a>
</g>
</g>
<!-- Node6&#45;&gt;Node8 -->
<g id="edge8" class="edge">
<title>Node6&#45;&gt;Node8</title>
<path fill="none" stroke="#63b8ff" d="M193.15,-54.75C195.4,-47.72 198.64,-37.62 201.46,-28.84"/>
<polygon fill="#63b8ff" stroke="#63b8ff" points="204.87,-29.68 204.59,-19.09 198.2,-27.54 204.87,-29.68"/>
</g>
<!-- Node9&#45;&gt;Node2 -->
<g id="edge10" class="edge">
<title>Node9&#45;&gt;Node2</title>
<path fill="none" stroke="#63b8ff" d="M266.58,-54.98C236.4,-46.05 188.77,-31.94 155.24,-22.02"/>
<polygon fill="#63b8ff" stroke="#63b8ff" points="155.91,-18.57 145.33,-19.08 153.92,-25.28 155.91,-18.57"/>
</g>
<!-- Node9&#45;&gt;Node7 -->
<g id="edge11" class="edge">
<title>Node9&#45;&gt;Node7</title>
<path fill="none" stroke="#63b8ff" d="M300.96,-54.75C305.66,-47.42 312.52,-36.73 318.31,-27.7"/>
<polygon fill="#63b8ff" stroke="#63b8ff" points="321.38,-29.4 323.83,-19.09 315.49,-25.62 321.38,-29.4"/>
</g>
<!-- Node9&#45;&gt;Node8 -->
<g id="edge12" class="edge">
<title>Node9&#45;&gt;Node8</title>
<path fill="none" stroke="#63b8ff" d="M281.2,-54.98C267.56,-46.77 246.65,-34.18 230.56,-24.49"/>
<polygon fill="#63b8ff" stroke="#63b8ff" points="232.11,-21.33 221.74,-19.17 228.5,-27.33 232.11,-21.33"/>
</g>
<!-- Node10&#45;&gt;Node3 -->
<g id="edge15" class="edge">
<title>Node10&#45;&gt;Node3</title>
<path fill="none" stroke="#63b8ff" d="M451.95,-54.98C461.8,-47.07 476.69,-35.11 488.56,-25.58"/>
<polygon fill="#63b8ff" stroke="#63b8ff" points="490.94,-28.16 496.54,-19.17 486.56,-22.7 490.94,-28.16"/>
</g>
<!-- Node10&#45;&gt;Node7 -->
<g id="edge16" class="edge">
<title>Node10&#45;&gt;Node7</title>
<path fill="none" stroke="#63b8ff" d="M423.35,-54.98C405.41,-46.5 377.63,-33.35 356.91,-23.54"/>
<polygon fill="#63b8ff" stroke="#63b8ff" points="358.2,-20.28 347.66,-19.17 355.21,-26.61 358.2,-20.28"/>
</g>
<!-- Node11 -->
<g id="node11" class="node">
<title>Node11</title>
<g id="a_node11"><a xlink:title=" ">
<polygon fill="#e0e0e0" stroke="#999999" points="461.34,-19 409.34,-19 409.34,0 461.34,0 461.34,-19"/>
<text text-anchor="middle" x="435.34" y="-7" font-family="Helvetica,sans-Serif" font-size="10.00">cassert</text>
</a>
</g>
</g>
<!-- Node10&#45;&gt;Node11 -->
<g id="edge14" class="edge">
<title>Node10&#45;&gt;Node11</title>
<path fill="none" stroke="#63b8ff" d="M440.35,-54.75C439.56,-47.8 438.44,-37.85 437.45,-29.13"/>
<polygon fill="#63b8ff" stroke="#63b8ff" points="440.92,-28.63 436.31,-19.09 433.96,-29.42 440.92,-28.63"/>
</g>
<!-- Node12&#45;&gt;Node2 -->
<g id="edge18" class="edge">
<title>Node12&#45;&gt;Node2</title>
<path fill="none" stroke="#63b8ff" d="M57.59,-54.98C68.14,-47 84.14,-34.88 96.78,-25.31"/>
<polygon fill="#63b8ff" stroke="#63b8ff" points="99.03,-28 104.89,-19.17 94.81,-22.42 99.03,-28"/>
</g>
<!-- Node13&#45;&gt;Node2 -->
<g id="edge21" class="edge">
<title>Node13&#45;&gt;Node2</title>
<path fill="none" stroke="#63b8ff" d="M116.34,-54.75C116.34,-47.8 116.34,-37.85 116.34,-29.13"/>
<polygon fill="#63b8ff" stroke="#63b8ff" points="119.84,-29.09 116.34,-19.09 112.84,-29.09 119.84,-29.09"/>
</g>
</g>
</svg>
